<svg xmlns="http://www.w3.org/2000/svg" xmlns:xlink="http://www.w3.org/1999/xlink" xmlns:inkscape="http://www.inkscape.org/namespaces/inkscape" version="1.1" width="2300" height="1488.29" viewBox="0 0 2300 1488.29">
<defs>
<clipPath id="clip_0">
<path transform="matrix(1,0,0,-1,0,1488.29)" d="M0 1488.292H2300V0H0Z"/>
</clipPath>
</defs>
<g>
<g inkscape:groupmode="layer" inkscape:label="Calque 1">
<g clip-path="url(#clip_0)">
<path transform="matrix(1,0,0,-1,1119.7002,782.72799)" d="M0 0C-3.636 44.287-37.75 80.062-87.09 80.002-87.09 80.002-112.891 81.455-127.91 76.31L-127.903 76.313C-140.793 72.371-152.385 65.456-161.878 56.367L-161.91 56.401C-174.555 44.67-178.187 26.369-171.651 10.932L-171.526 10.718C-167.002-.007-156.389-7.535-144.017-7.535-136.442-7.535-129.528-4.714-124.266-.064L-121.726 1.836C-121.567 1.948-121.4 2.037-121.241 2.146-120.148 2.972-119.043 3.745-117.948 4.449-111.061 8.871-104.595 10.909-104.595 10.909-97.157 13.524-89.609 14.553-82.836 14.757L-82.482 14.776C-76.963 14.773-71.5 12.32-67.838 7.634-67.76 7.532-67.695 7.425-67.62 7.323-67.044 6.628-66.502 5.923-66.008 5.222-62.896 .814-61.366-3.384-61.366-3.384-55.525-17.917-59.15-33.531-59.175-33.635L-59.179-33.638-59.583-33.652C-68.876-32.882-78.071-32.691-85.62-32.693-90.833-32.694-98.089-32.852-102.512-33.123-104.55-33.248-114.149-33.919-117.417-34.342-120.127-34.692-122.752-35.093-124.643-35.381-150.647-39.354-172.328-55.485-185.121-77.328-216.618-131.104-187.992-182.933-187.992-182.933-180.974-196.533-169.771-207.624-156.088-214.504-146.32-219.414-135.288-222.179-123.61-222.179L-121.202-222.056C-112.852-222.056-105.005-219.897-98.189-216.108-83.625-208.013-73.771-192.469-73.771-174.624-73.771-161.469-79.114-149.727-87.765-141.135-88.824-141.971-89.957-142.791-91.137-143.583-91.296-143.701-91.438-143.834-91.601-143.95-104.735-153.312-122.975-150.253-132.336-137.116-141.698-123.98-138.639-105.742-125.503-96.381-125.339-96.264-125.166-96.172-125.001-96.06-123.869-95.204-122.725-94.402-121.59-93.674-114.454-89.092-107.756-86.98-107.756-86.98-89.139-80.434-69.851-83.487-62.85-84.98-58.208-100.004-58.98-112.881-58.935-133.908V-183.422C-58.935-204.089-42.193-223.528-18.883-222.179H-10.201L.192-222.18C15.951-222.18 24.066-209.599 24.066-194.08V-188.029C24.008-178.363 22.994-169.212 15.327-163.248L13.18-161.458C5.478-155.643 .192-146.488 .192-136.192V-129.113-33.1Z" fill="#ed1c24"/>
<path transform="matrix(1,0,0,-1,1643.3711,1068.5844)" d="M0 0 74.405 267.894 76.224 274.972C78.664 286.902 90.335 294.423 98.038 300.238L100.185 302.028C107.852 307.991 108.865 317.144 108.925 326.81L108.926 332.86C108.926 348.379 101.22 360.959 74.797 360.959H15.179C-.58 360.959-9.805 348.379-9.805 332.86V326.81C-9.746 317.144-8.731 307.991-1.064 302.028L1.083 300.238C8.785 294.423 14.382 285.264 14.382 272.756L13.771 267.894-15.134 169.745-44.04 267.894-44.65 272.756C-44.65 285.264-39.053 294.423-31.351 300.238L-29.204 302.028C-21.538 307.991-20.523 317.144-20.464 326.81V332.86C-20.464 348.379-29.688 360.959-45.447 360.959H-105.065C-131.488 360.959-139.193 348.379-139.193 332.86V326.81C-139.135 317.144-138.12 307.991-130.453 302.028L-128.306 300.238C-120.604 294.423-108.934 286.902-106.493 274.972L-104.674 267.894-50.19 58.639C-50.19 58.639-48.131 51.209-50.888 44.032-55.913 29.794-60.454 19.915-63.612 13.776-69.16 3.52-80.014-3.448-92.494-3.448-98.427-3.448-103.992-1.873-108.795 .881L-108.834 .896C-112.077 2.758-115.778 5.369-120.067 9-120.264 9.177-122.725 11.306-122.91 11.494-137.737 26.605-155.156 27.18-171.793 9.294-188.43-8.592-188.741-34.419-172.489-48.393-172.489-48.393-156.376-64.415-115.665-68.233-110.231-68.743-104.377-69.044-98.048-69.052-51.768-69.107-11.758-40.661 0 0" fill="#ed1c24"/>
<path transform="matrix(1,0,0,-1,1431.8193,912.10977)" d="M0 0V110.399H-.128C-.128 126.687-13.537 139.89-30.075 139.89-46.614 139.89-60.022 126.687-60.022 110.399H-59.872V0H-59.823L-59.805-7.078C-59.805-16.082-56.005-24.212-49.902-30-49.044-30.808-48.145-31.573-47.202-32.285L-45.056-34.075C-45.042-34.086-45.033-34.099-45.02-34.108L-44.988-34.135C-37.322-40.098-36.307-49.25-36.249-58.916L-36.248-64.967C-36.248-80.485-45.474-93.065-61.232-93.065H-119.051C-134.81-93.065-144.033-80.485-144.033-64.967V-58.916C-143.975-49.25-142.961-40.098-135.295-34.135L-133.146-32.344C-125.444-26.529-120.479-17.375-120.479-7.078L-120.458 0H-120.146V110.399H-120.429C-120.429 126.687-133.837 139.89-150.376 139.89-166.914 139.89-180.321 126.687-180.321 110.399L-180.035 .059-180.016-7.02C-180.016-17.315-175.049-26.47-167.346-32.285L-165.2-34.075C-157.534-40.039-156.519-49.19-156.459-58.856V-64.908C-156.459-80.426-165.686-93.007-181.444-93.007H-239.262C-255.021-93.007-264.245-80.426-264.245-64.908V-58.856C-264.187-49.19-263.172-40.039-255.506-34.075L-253.358-32.285C-245.656-26.47-240.69-17.315-240.69-7.02L-240.669 .059-240.861 96.072-241.599 124.611H-263.234C-300.843 124.659-294.078 149.033-294.078 149.033-291.775 176.153-253.973 196.958-239.805 203.836-239.805 203.836-220.255 215.96-210.929 184.834L-210.358 185.329-210.361 185.315C-194.967 198.455-174.882 209.901-152.909 209.901H-147.65C-125.688 209.901-105.607 198.46-90.214 185.329L-90.218 185.315C-74.823 198.455-54.736 209.901-32.766 209.901H-27.507C17.717 209.901 54.951 172.722 59.738 129.441 60.081 126.334 60.257 123.178 60.257 119.979H60.253V29.967L60.239 16.986C70.944 14.721 93.589 6.057 81.06-26.072 81.06-26.072 63.034-68.663 20.963-114.382 20.963-114.382-23.925-123.057-16.907-71.172-15.492-60.705-11.605-52.182-11.605-52.182-6.342-42.055 .821-23.635-.07 .445" fill="#ed1c24"/>
<path transform="matrix(1,0,0,-1,1778.4658,664.3402)" d="M0 0H6.539C10.776 0 13.452 .18 14.489 .531 15.538 .901 16.36 1.526 16.953 2.413 17.56 3.278 17.865 4.392 17.865 5.721 17.865 7.207 17.47 8.41 16.68 9.312 15.897 10.23 14.795 10.798 13.354 11.057 12.626 11.139 10.475 11.196 6.891 11.196H0ZM-8.938-25.488V18.687H9.785C14.489 18.687 17.912 18.289 20.045 17.491 22.174 16.701 23.88 15.301 25.176 13.269 26.458 11.236 27.083 8.92 27.083 6.306 27.083 2.995 26.117 .248 24.182-1.906 22.235-4.064 19.352-5.419 15.498-5.993 17.416-7.11 18.989-8.349 20.26-9.691 21.499-11.046 23.165-13.426 25.276-16.866L30.646-25.488H20.005L13.643-15.868C11.369-12.429 9.8-10.259 8.974-9.368 8.123-8.478 7.232-7.867 6.299-7.53 5.347-7.207 3.864-7.031 1.807-7.031H0V-25.488Z" fill="#ed1c24"/>
<path transform="matrix(1,0,0,-1,1786.1611,703.5316)" d="M0 0C-20.299 0-36.774 16.095-36.774 35.949-36.774 55.817-20.299 71.927 0 71.927 20.347 71.927 36.785 55.817 36.785 35.949 36.785 16.095 20.347 0 0 0M0 79.7C-24.687 79.7-44.731 60.104-44.731 35.949-44.731 11.821-24.687-7.773 0-7.773 24.709-7.773 44.75 11.821 44.75 35.949 44.75 60.104 24.709 79.7 0 79.7" fill="#ed1c24"/>
<path transform="matrix(1,0,0,-1,1087.4717,1050.7123)" d="M0 0C-5.082 16.496-16.396 29.355-30.562 36.788L-30.582 36.795C-31.412 35.501-32.313 34.198-33.268 32.908-33.409 32.695-33.524 32.473-33.671 32.263-35.894 29.073-38.522 26.336-41.438 24.068-41.479 24.04-41.521 24.012-41.562 23.984-42.22 23.477-42.937 23.074-43.622 22.614-45.667 21.343-47.795 20.191-49.987 19.148-50.312 19.013-50.615 18.825-50.942 18.698-83.924 3.619-130.654 12.676-130.654 12.676-224.39 27.905-292.948 129.202-318.903 174.002-279.534 186.072-153.553 237.785-162.264 403.555-166.952 492.779-232.035 569.035-328.654 593.304-328.654 593.304-353.757 598.832-376.053 598.832-376.053 598.832-513.93 608.244-578.772 463.315-582.564 452.85-585.553 444.067-587.848 434.889-591.779 419.163-593.779 403.16-594.169 389.372-594.803 366.987-591.96 350.446-591.96 350.446-588.025 319.069-573.907 290.464-573.907 290.464-565.097 273.536-553.29 264.617-553.29 264.617-535.044 250.044-506.048 254.822-493.226 272.808-470.625 304.509-505.31 328.771-505.31 328.771-515.978 334.39-519.959 343.414-522.673 351.039-522.673 351.039-535.43 400.065-510.26 448.804-510.26 448.804-474.911 527.703-380.835 530.487-371.071 530.775-361.785 529.59-350.8 527.955-350.8 527.955-329.005 524.91-304.841 511.397-268.021 490.808-229.487 448.527-229.487 378.679-229.487 328.207-264.225 269.991-313.603 248.575-313.603 248.575-375.627 211.682-392.447 278.876-392.447 278.876-398.034 310.718-385.744 335.856-385.744 335.856-353.901 407.92-368.985 446.465-368.985 446.465-387.979 489.479-432.11 462.666-432.11 462.666-483.504 434.175-465.628 358.201-465.628 358.201-459.595 341.31-455.143 325.13L-454.956 191.231-454.92 191.361V190.875L-455.159 190.873-455.041 103.895-455.378 102.378V52.166C-455.378 50.333-455.208 48.528-454.963 46.741L-454.962 46.28-454.921 46.462C-452.17 27.403-436.002 11.655-416.409 11.655H-407.506L-395.125 11.525C-378.964 11.525-365.863 24.626-365.863 40.787L-365.864 47.089C-365.924 57.155-370.605 66.686-378.467 72.896L-380.669 74.761C-388.568 80.816-393.662 90.35-393.662 101.072L-393.682 108.443-393.652 111.733-393.708 182.728C-389.071 179.453-384.06 176.673-378.675 174.465-356.343 93.896-295.68 20.589-295.68 20.589-246.165-43.794-190.34-69.823-146.935-79.767V-79.768C-89.196-94.555-41.156-77.801-41.156-77.801-30.685-74.574-21.678-68.837-14.596-61.453 .54-45.675 6.893-22.378 0 0" fill="#ed1c24"/>
<path transform="matrix(1,0,0,-1,633.936,706.90859)" d="M0 0 .18-129.25 .214-129.124 .215-129.595-.016-129.596" fill="#ed1c24"/>
</g>
</g>
</g>
</svg>
