<svg width="2300" height="1489" viewBox="0 0 2300 1489" fill="none" xmlns="http://www.w3.org/2000/svg">
<g clip-path="url(#clip0_2407_2)">
<mask id="mask0_2407_2" style="mask-type:luminance" maskUnits="userSpaceOnUse" x="0" y="-1" width="2300" height="1490">
<path d="M0 -0.00195312H2300V1488.29H0V-0.00195312Z" fill="white"/>
</mask>
<g mask="url(#mask0_2407_2)">
<path d="M1119.7 782.728C1116.06 738.441 1081.95 702.666 1032.61 702.726C1032.61 702.726 1006.81 701.273 991.79 706.418L991.797 706.415C978.907 710.357 967.315 717.272 957.822 726.361L957.79 726.327C945.145 738.058 941.513 756.359 948.049 771.796L948.174 772.01C952.698 782.735 963.311 790.263 975.683 790.263C983.258 790.263 990.172 787.442 995.434 782.792L997.974 780.892C998.133 780.78 998.3 780.691 998.459 780.582C999.552 779.756 1000.66 778.983 1001.75 778.279C1008.64 773.857 1015.11 771.819 1015.11 771.819C1022.54 769.204 1030.09 768.175 1036.86 767.971L1037.22 767.952C1042.74 767.955 1048.2 770.408 1051.86 775.094C1051.94 775.196 1052.01 775.303 1052.08 775.405C1052.66 776.1 1053.2 776.805 1053.69 777.506C1056.8 781.914 1058.33 786.112 1058.33 786.112C1064.18 800.645 1060.55 816.259 1060.53 816.363L1060.52 816.366L1060.12 816.38C1050.82 815.61 1041.63 815.419 1034.08 815.421C1028.87 815.422 1021.61 815.58 1017.19 815.851C1015.15 815.976 1005.55 816.647 1002.28 817.07C999.573 817.42 996.948 817.821 995.057 818.109C969.053 822.082 947.372 838.213 934.579 860.056C903.082 913.832 931.708 965.661 931.708 965.661C938.726 979.261 949.929 990.352 963.612 997.232C973.38 1002.14 984.412 1004.91 996.09 1004.91L998.498 1004.78C1006.85 1004.78 1014.7 1002.62 1021.51 998.836C1036.08 990.741 1045.93 975.197 1045.93 957.352C1045.93 944.197 1040.59 932.455 1031.94 923.863C1030.88 924.699 1029.74 925.519 1028.56 926.311C1028.4 926.429 1028.26 926.562 1028.1 926.678C1014.97 936.04 996.725 932.981 987.364 919.844C978.002 906.708 981.061 888.47 994.197 879.109C994.361 878.992 994.534 878.9 994.699 878.788C995.831 877.932 996.975 877.13 998.11 876.402C1005.25 871.82 1011.94 869.708 1011.94 869.708C1030.56 863.162 1049.85 866.215 1056.85 867.708C1061.49 882.732 1060.72 895.609 1060.77 916.636V966.15C1060.77 986.817 1077.51 1006.26 1100.82 1004.91H1109.5L1119.89 1004.91C1135.65 1004.91 1143.77 992.327 1143.77 976.808V970.757C1143.71 961.091 1142.69 951.94 1135.03 945.976L1132.88 944.186C1125.18 938.371 1119.89 929.216 1119.89 918.92V911.841V815.828L1119.7 782.728Z" fill="white"/>
<path d="M1643.37 1068.58L1717.78 800.69L1719.6 793.612C1722.04 781.682 1733.71 774.161 1741.41 768.346L1743.56 766.556C1751.22 760.593 1752.24 751.44 1752.3 741.774L1752.3 735.724C1752.3 720.205 1744.59 707.625 1718.17 707.625H1658.55C1642.79 707.625 1633.57 720.205 1633.57 735.724V741.774C1633.63 751.44 1634.64 760.593 1642.31 766.556L1644.45 768.346C1652.16 774.161 1657.75 783.32 1657.75 795.828L1657.14 800.69L1628.24 898.839L1599.33 800.69L1598.72 795.828C1598.72 783.32 1604.32 774.161 1612.02 768.346L1614.17 766.556C1621.83 760.593 1622.85 751.44 1622.91 741.774V735.724C1622.91 720.205 1613.68 707.625 1597.92 707.625H1538.31C1511.88 707.625 1504.18 720.205 1504.18 735.724V741.774C1504.24 751.44 1505.25 760.593 1512.92 766.556L1515.07 768.346C1522.77 774.161 1534.44 781.682 1536.88 793.612L1538.7 800.69L1593.18 1009.95C1593.18 1009.95 1595.24 1017.38 1592.48 1024.55C1587.46 1038.79 1582.92 1048.67 1579.76 1054.81C1574.21 1065.06 1563.36 1072.03 1550.88 1072.03C1544.94 1072.03 1539.38 1070.46 1534.58 1067.7L1534.54 1067.69C1531.29 1065.83 1527.59 1063.22 1523.3 1059.58C1523.11 1059.41 1520.65 1057.28 1520.46 1057.09C1505.63 1041.98 1488.22 1041.4 1471.58 1059.29C1454.94 1077.18 1454.63 1103 1470.88 1116.98C1470.88 1116.98 1487 1133 1527.71 1136.82C1533.14 1137.33 1538.99 1137.63 1545.32 1137.64C1591.6 1137.69 1631.61 1109.25 1643.37 1068.58Z" fill="white"/>
<path d="M1431.82 912.11V801.711H1431.69C1431.69 785.423 1418.28 772.22 1401.74 772.22C1385.21 772.22 1371.8 785.423 1371.8 801.711H1371.95V912.11H1372L1372.01 919.188C1372.01 928.192 1375.81 936.322 1381.92 942.11C1382.78 942.918 1383.67 943.683 1384.62 944.395L1386.76 946.185C1386.78 946.196 1386.79 946.209 1386.8 946.218L1386.83 946.245C1394.5 952.208 1395.51 961.36 1395.57 971.026L1395.57 977.077C1395.57 992.595 1386.35 1005.17 1370.59 1005.17H1312.77C1297.01 1005.17 1287.79 992.595 1287.79 977.077V971.026C1287.84 961.36 1288.86 952.208 1296.52 946.245L1298.67 944.454C1306.38 938.639 1311.34 929.485 1311.34 919.188L1311.36 912.11H1311.67V801.711H1311.39C1311.39 785.423 1297.98 772.22 1281.44 772.22C1264.91 772.22 1251.5 785.423 1251.5 801.711L1251.78 912.051L1251.8 919.13C1251.8 929.425 1256.77 938.58 1264.47 944.395L1266.62 946.185C1274.29 952.149 1275.3 961.3 1275.36 970.966V977.018C1275.36 992.536 1266.13 1005.12 1250.38 1005.12H1192.56C1176.8 1005.12 1167.57 992.536 1167.57 977.018V970.966C1167.63 961.3 1168.65 952.149 1176.31 946.185L1178.46 944.395C1186.16 938.58 1191.13 929.425 1191.13 919.13L1191.15 912.051L1190.96 816.038L1190.22 787.499H1168.59C1130.98 787.451 1137.74 763.077 1137.74 763.077C1140.04 735.957 1177.85 715.152 1192.01 708.274C1192.01 708.274 1211.56 696.15 1220.89 727.276L1221.46 726.781L1221.46 726.795C1236.85 713.655 1256.94 702.209 1278.91 702.209H1284.17C1306.13 702.209 1326.21 713.65 1341.61 726.781L1341.6 726.795C1357 713.655 1377.08 702.209 1399.05 702.209H1404.31C1449.54 702.209 1486.77 739.388 1491.56 782.669C1491.9 785.776 1492.08 788.932 1492.08 792.131H1492.07V882.143L1492.06 895.124C1502.76 897.389 1525.41 906.053 1512.88 938.182C1512.88 938.182 1494.85 980.773 1452.78 1026.49C1452.78 1026.49 1407.89 1035.17 1414.91 983.282C1416.33 972.815 1420.21 964.292 1420.21 964.292C1425.48 954.165 1432.64 935.745 1431.75 911.665" fill="white"/>
<path d="M1778.47 664.34H1785C1789.24 664.34 1791.92 664.16 1792.95 663.809C1794 663.439 1794.83 662.814 1795.42 661.927C1796.03 661.062 1796.33 659.948 1796.33 658.619C1796.33 657.133 1795.94 655.93 1795.15 655.028C1794.36 654.11 1793.26 653.542 1791.82 653.283C1791.09 653.201 1788.94 653.144 1785.36 653.144H1778.47V664.34ZM1769.53 689.828V645.653H1788.25C1792.95 645.653 1796.38 646.051 1798.51 646.849C1800.64 647.639 1802.35 649.039 1803.64 651.071C1804.92 653.104 1805.55 655.42 1805.55 658.034C1805.55 661.345 1804.58 664.092 1802.65 666.246C1800.7 668.404 1797.82 669.759 1793.96 670.333C1795.88 671.45 1797.45 672.689 1798.73 674.031C1799.96 675.386 1801.63 677.766 1803.74 681.206L1809.11 689.828H1798.47L1792.11 680.208C1789.83 676.769 1788.27 674.599 1787.44 673.708C1786.59 672.818 1785.7 672.207 1784.76 671.87C1783.81 671.547 1782.33 671.371 1780.27 671.371H1778.47V689.828H1769.53Z" fill="white"/>
<path d="M1786.16 703.532C1765.86 703.532 1749.39 687.437 1749.39 667.583C1749.39 647.715 1765.86 631.605 1786.16 631.605C1806.51 631.605 1822.95 647.715 1822.95 667.583C1822.95 687.437 1806.51 703.532 1786.16 703.532ZM1786.16 623.832C1761.47 623.832 1741.43 643.428 1741.43 667.583C1741.43 691.711 1761.47 711.305 1786.16 711.305C1810.87 711.305 1830.91 691.711 1830.91 667.583C1830.91 643.428 1810.87 623.832 1786.16 623.832Z" fill="white"/>
<path d="M1087.47 1050.71C1082.39 1034.22 1071.08 1021.36 1056.91 1013.92L1056.89 1013.92C1056.06 1015.21 1055.16 1016.51 1054.2 1017.8C1054.06 1018.02 1053.95 1018.24 1053.8 1018.45C1051.58 1021.64 1048.95 1024.38 1046.03 1026.64C1045.99 1026.67 1045.95 1026.7 1045.91 1026.73C1045.25 1027.24 1044.53 1027.64 1043.85 1028.1C1041.8 1029.37 1039.68 1030.52 1037.48 1031.56C1037.16 1031.7 1036.86 1031.89 1036.53 1032.01C1003.55 1047.09 956.818 1038.04 956.818 1038.04C863.082 1022.81 794.524 921.51 768.569 876.71C807.938 864.64 933.919 812.927 925.208 647.157C920.52 557.933 855.437 481.677 758.818 457.408C758.818 457.408 733.715 451.88 711.419 451.88C711.419 451.88 573.542 442.468 508.7 587.397C504.908 597.862 501.919 606.645 499.624 615.823C495.693 631.549 493.693 647.552 493.303 661.34C492.669 683.725 495.512 700.266 495.512 700.266C499.447 731.643 513.565 760.248 513.565 760.248C522.375 777.176 534.182 786.095 534.182 786.095C552.428 800.668 581.424 795.89 594.246 777.904C616.847 746.203 582.162 721.941 582.162 721.941C571.494 716.322 567.513 707.298 564.799 699.673C564.799 699.673 552.042 650.647 577.212 601.908C577.212 601.908 612.561 523.009 706.637 520.225C716.401 519.937 725.687 521.122 736.672 522.757C736.672 522.757 758.467 525.802 782.631 539.315C819.451 559.904 857.985 602.185 857.985 672.033C857.985 722.505 823.247 780.721 773.869 802.137C773.869 802.137 711.845 839.03 695.025 771.836C695.025 771.836 689.438 739.994 701.728 714.856C701.728 714.856 733.571 642.792 718.487 604.247C718.487 604.247 699.493 561.233 655.362 588.046C655.362 588.046 603.968 616.537 621.844 692.511C621.844 692.511 627.877 709.402 632.329 725.582L632.516 859.481L632.552 859.351V859.837L632.313 859.839L632.431 946.817L632.094 948.334V998.546C632.094 1000.38 632.264 1002.18 632.509 1003.97L632.51 1004.43L632.551 1004.25C635.302 1023.31 651.47 1039.06 671.063 1039.06H679.966L692.347 1039.19C708.508 1039.19 721.609 1026.09 721.609 1009.93L721.608 1003.62C721.548 993.557 716.867 984.026 709.005 977.816L706.803 975.951C698.904 969.896 693.81 960.362 693.81 949.64L693.79 942.269L693.82 938.979L693.764 867.984C698.401 871.259 703.412 874.039 708.797 876.247C731.129 956.816 791.792 1030.12 791.792 1030.12C841.307 1094.51 897.132 1120.54 940.537 1130.48C998.276 1145.27 1046.32 1128.51 1046.32 1128.51C1056.79 1125.29 1065.79 1119.55 1072.88 1112.17C1088.01 1096.39 1094.36 1073.09 1087.47 1050.71Z" fill="white"/>
<path d="M633.936 706.908L634.116 836.158L634.15 836.032L634.151 836.503L633.92 836.504" fill="white"/>
</g>
</g>
<defs>
<clipPath id="clip0_2407_2">
<rect width="2300" height="1488.29" fill="white"/>
</clipPath>
</defs>
</svg>
